<svg xmlns="http://www.w3.org/2000/svg" viewBox="0 60 280 240">
  <!-- Geen achtergrond: volledig transparant -->

  <!-- === RECHTHOEKIGE KADER === -->
  <rect x="64" y="88" width="152" height="148" rx="6" ry="6"
        fill="none" stroke="rgba(255,255,255,0.7)" stroke-width="3"/>

  <!-- === NETWERK-NODE BINNEN de kader === -->
  <g transform="translate(140, 128)">
    <line x1="0" y1="0" x2="-22" y2="-16" stroke="rgba(255,255,255,0.45)" stroke-width="1.8" stroke-linecap="round"/>
    <line x1="0" y1="0" x2="22"  y2="-16" stroke="rgba(255,255,255,0.45)" stroke-width="1.8" stroke-linecap="round"/>
    <line x1="0" y1="0" x2="-25" y2="0"   stroke="rgba(255,255,255,0.45)" stroke-width="1.8" stroke-linecap="round"/>
    <line x1="0" y1="0" x2="25"  y2="0"   stroke="rgba(255,255,255,0.45)" stroke-width="1.8" stroke-linecap="round"/>
    <line x1="0" y1="0" x2="-16" y2="16"  stroke="rgba(255,255,255,0.45)" stroke-width="1.8" stroke-linecap="round"/>
    <line x1="0" y1="0" x2="16"  y2="16"  stroke="rgba(255,255,255,0.45)" stroke-width="1.8" stroke-linecap="round"/>
    <circle cx="-22" cy="-16" r="4.5" fill="#e8982a"/>
    <circle cx="22"  cy="-16" r="4.5" fill="#e8982a"/>
    <circle cx="-25" cy="0"   r="4.5" fill="#3aa8c1"/>
    <circle cx="25"  cy="0"   r="4.5" fill="#3aa8c1"/>
    <circle cx="-16" cy="16"  r="4.5" fill="#e8982a"/>
    <circle cx="16"  cy="16"  r="4.5" fill="#e8982a"/>
    <circle cx="0"   cy="0"   r="8"   fill="#3aa8c1"/>
    <circle cx="0"   cy="0"   r="4"   fill="#2a8aaa"/>
  </g>

  <!-- === GLOBE === -->
  <g transform="translate(103, 195)">
    <circle cx="0" cy="0" r="28" fill="none" stroke="rgba(255,255,255,0.7)" stroke-width="2"/>
    <ellipse cx="0" cy="0" rx="28" ry="10" fill="none" stroke="rgba(255,255,255,0.45)" stroke-width="1.4"/>
    <line x1="0" y1="-28" x2="0" y2="28" stroke="rgba(255,255,255,0.45)" stroke-width="1.4"/>
    <line x1="-28" y1="0" x2="28" y2="0" stroke="rgba(255,255,255,0.45)" stroke-width="1.4"/>
    <path d="M -24 -14 Q 0 -18 24 -14" fill="none" stroke="rgba(255,255,255,0.35)" stroke-width="1.2"/>
    <path d="M -24  14 Q 0  18 24  14" fill="none" stroke="rgba(255,255,255,0.35)" stroke-width="1.2"/>
  </g>

  <!-- === GEBOUWEN === -->
  <rect x="148" y="168" width="22" height="58" rx="2" fill="rgba(255,255,255,0.22)"/>
  <rect x="152" y="172" width="5" height="5" fill="rgba(255,255,255,0.45)"/>
  <rect x="161" y="172" width="5" height="5" fill="rgba(255,255,255,0.45)"/>
  <rect x="152" y="182" width="5" height="5" fill="rgba(255,255,255,0.45)"/>
  <rect x="161" y="182" width="5" height="5" fill="rgba(255,255,255,0.45)"/>
  <rect x="152" y="192" width="5" height="5" fill="rgba(255,255,255,0.45)"/>
  <rect x="161" y="192" width="5" height="5" fill="rgba(255,255,255,0.45)"/>
  <rect x="152" y="202" width="5" height="5" fill="rgba(255,255,255,0.45)"/>
  <rect x="161" y="202" width="5" height="5" fill="rgba(255,255,255,0.45)"/>
  <rect x="172" y="184" width="18" height="42" rx="2" fill="rgba(255,255,255,0.16)"/>
  <rect x="176" y="188" width="4" height="4" fill="rgba(255,255,255,0.45)"/>
  <rect x="183" y="188" width="4" height="4" fill="rgba(255,255,255,0.45)"/>
  <rect x="176" y="197" width="4" height="4" fill="rgba(255,255,255,0.45)"/>
  <rect x="183" y="197" width="4" height="4" fill="rgba(255,255,255,0.45)"/>
  <rect x="176" y="206" width="4" height="4" fill="rgba(255,255,255,0.45)"/>
  <rect x="183" y="206" width="4" height="4" fill="rgba(255,255,255,0.45)"/>

  <!-- === TEKST === -->
  <text x="140" y="263"
        font-family="'Helvetica Neue', Arial, sans-serif"
        font-size="28"
        font-weight="700"
        fill="white"
        text-anchor="middle"
        letter-spacing="1">Opti Intel</text>
</svg>
